<?xml version="1.0" standalone="no"?>
<!DOCTYPE svg PUBLIC "-//W3C//DTD SVG 20010904//EN"
 "http://www.w3.org/TR/2001/REC-SVG-20010904/DTD/svg10.dtd">
<svg version="1.0" xmlns="http://www.w3.org/2000/svg"
 width="512.000000pt" height="512.000000pt" viewBox="0 0 512.000000 512.000000"
 preserveAspectRatio="xMidYMid meet">
<metadata>
Created by potrace 1.16, written by Peter Selinger 2001-2019
</metadata>
<g transform="translate(0.000000,512.000000) scale(0.100000,-0.100000)"
fill="#000000" stroke="none">
<path d="M4310 5019 c-220 -43 -388 -273 -366 -501 l7 -67 -28 -6 c-58 -13
-120 -39 -172 -73 -54 -36 -124 -114 -136 -153 -7 -21 -11 -22 -98 -15 -49 3
-109 6 -132 6 l-42 0 -5 63 c-10 118 -84 223 -196 275 -48 23 -71 27 -142 27
-71 0 -94 -4 -141 -26 -105 -50 -185 -157 -196 -264 l-5 -52 -317 -7 c-296 -7
-526 -16 -796 -32 l-115 -7 0 34 c0 56 -29 150 -61 201 -123 191 -368 241
-556 112 l-52 -36 -68 28 c-53 22 -89 29 -164 32 -158 7 -269 -36 -380 -147
-156 -157 -193 -386 -93 -584 32 -61 152 -184 209 -212 22 -10 45 -22 51 -27
7 -5 3 -55 -12 -159 -13 -83 -26 -187 -30 -231 -6 -74 -5 -81 16 -103 13 -14
30 -25 37 -25 12 0 13 -17 8 -92 -8 -99 -10 -104 -39 -110 -10 -1 -28 -16 -40
-31 -21 -28 -21 -36 -21 -470 1 -340 5 -485 18 -627 20 -211 50 -451 73 -590
20 -116 20 -102 0 -175 -44 -164 3 -342 122 -464 99 -101 250 -159 382 -147
l65 6 19 -46 c28 -68 116 -158 190 -194 173 -85 362 -55 497 79 67 68 105 145
121 246 l12 77 30 -6 c17 -3 213 -10 436 -17 305 -9 503 -9 805 0 540 16 703
27 734 50 49 35 44 102 -7 124 -23 9 -75 9 -238 0 -367 -21 -1066 -27 -1434
-13 -184 7 -341 13 -348 13 -7 0 -29 24 -48 53 -41 61 -93 111 -155 147 -49
29 -146 57 -195 57 -31 0 -34 3 -48 53 -42 140 -165 270 -304 318 -69 25 -200
35 -262 21 -24 -6 -45 -10 -46 -9 -6 5 -36 301 -49 470 -38 516 -27 981 35
1512 12 94 25 194 31 222 10 51 13 54 69 84 69 36 148 107 187 167 l28 43 91
2 c79 3 100 7 155 34 64 32 137 95 166 144 15 26 16 26 217 38 355 21 615 30
862 31 l242 0 68 -68 c82 -82 140 -107 249 -106 95 0 178 38 243 109 l48 52
132 -5 132 -5 0 -46 c1 -263 267 -476 523 -419 l68 15 67 -67 c133 -133 302
-184 482 -146 36 8 67 12 68 11 6 -6 31 -209 49 -399 22 -226 25 -992 5 -1206
-41 -440 -81 -701 -122 -787 -48 -104 -159 -199 -275 -235 -16 -5 -131 -20
-255 -33 -217 -22 -225 -24 -247 -49 -27 -32 -28 -47 -8 -86 19 -36 42 -43
113 -36 31 3 129 13 217 21 88 9 185 23 215 31 93 27 190 84 261 155 120 119
159 217 199 498 97 682 103 1389 19 2043 l-21 168 56 61 c219 236 185 603 -71
786 -66 47 -69 52 -53 83 19 36 30 154 19 221 -42 267 -292 440 -559 388z
m239 -180 c157 -78 217 -273 132 -424 -23 -41 -31 -67 -29 -93 3 -35 6 -39 81
-74 93 -45 158 -108 195 -186 24 -50 27 -69 27 -162 0 -96 -2 -110 -29 -163
-36 -71 -108 -140 -184 -175 -49 -23 -70 -27 -152 -27 -87 0 -101 3 -160 32
-71 35 -114 75 -163 149 -43 65 -70 74 -139 44 -122 -52 -248 -31 -328 56 -58
63 -80 115 -80 195 0 123 80 235 195 269 22 7 73 12 113 11 65 -1 76 2 98 24
30 30 30 55 -1 130 -55 134 -12 289 103 368 59 42 108 56 188 57 60 0 81 -5
133 -31z m-3438 -399 c48 -13 118 -75 140 -124 25 -54 24 -148 0 -201 -51
-110 -166 -158 -294 -123 -71 19 -92 7 -132 -72 -44 -86 -99 -144 -174 -179
-48 -22 -69 -26 -146 -26 -78 0 -98 4 -147 28 -34 17 -77 50 -107 82 -158 173
-107 442 103 545 113 56 240 50 338 -16 81 -55 101 -55 151 -3 55 58 70 69
114 85 46 16 105 17 154 4z m1978 -38 c44 -21 88 -83 97 -137 20 -139 -125
-253 -254 -200 -75 32 -114 90 -116 170 -2 144 139 231 273 167z m-2144 -3254
c61 -31 130 -103 156 -163 11 -25 23 -74 28 -110 11 -93 21 -101 128 -97 113
4 171 -16 233 -78 111 -110 105 -297 -12 -395 -110 -93 -278 -86 -375 16 -35
37 -72 112 -73 144 0 29 -27 64 -57 76 -17 6 -38 5 -69 -6 -59 -20 -163 -19
-216 2 -139 54 -219 169 -219 314 0 144 83 262 219 314 61 24 195 15 257 -17z"/>
<path d="M2085 3340 c-289 -12 -668 -38 -725 -51 -117 -26 -238 -126 -295
-244 -75 -153 -115 -600 -85 -930 19 -197 48 -355 80 -422 48 -104 153 -200
260 -238 134 -47 1083 -82 1730 -64 302 8 744 36 809 50 120 26 253 132 304
241 58 123 91 365 91 678 0 308 -33 565 -88 686 -31 67 -119 162 -184 197 -97
52 -182 64 -617 87 -272 14 -1022 20 -1280 10z m935 -280 c179 -6 426 -17 550
-25 320 -22 333 -30 369 -230 34 -188 46 -409 32 -598 -13 -190 -43 -378 -65
-413 -47 -70 -75 -80 -286 -94 -679 -44 -1585 -41 -2117 9 -152 14 -187 50
-217 226 -43 252 -45 554 -6 820 35 235 58 256 290 274 181 13 535 31 700 34
321 7 448 6 750 -3z"/>
<path d="M1761 2715 c-70 -20 -105 -46 -130 -98 -25 -51 -27 -104 -6 -155 24
-56 52 -80 155 -132 108 -54 133 -77 133 -122 0 -82 -116 -104 -204 -40 -49
36 -69 40 -91 15 -44 -51 -22 -103 58 -140 139 -63 294 -28 351 81 22 41 22
151 1 191 -28 51 -80 92 -169 133 -118 55 -147 99 -92 142 23 18 38 21 88 17
33 -2 75 -10 93 -18 24 -10 37 -11 50 -3 24 16 39 61 26 82 -30 49 -168 73
-263 47z"/>
<path d="M2840 2718 c-22 -12 -37 -52 -122 -328 -54 -173 -95 -322 -93 -331
11 -33 92 -52 113 -26 6 7 18 40 28 75 l17 62 107 0 107 0 18 -62 c9 -35 22
-69 27 -75 21 -26 102 -7 113 26 6 21 -180 630 -198 649 -20 19 -87 25 -117
10z m89 -304 c18 -64 35 -123 38 -130 4 -11 -12 -14 -77 -14 -65 0 -81 3 -77
14 3 7 20 66 38 130 18 64 35 116 39 116 4 0 21 -52 39 -116z"/>
<path d="M2235 2701 c-49 -23 -88 -65 -104 -110 -7 -21 -11 -110 -11 -230 0
-216 9 -255 65 -299 107 -84 307 -53 361 55 16 33 19 65 22 230 2 116 -1 207
-8 232 -14 52 -54 99 -105 122 -54 25 -166 25 -220 0z m180 -122 c18 -18 20
-35 23 -196 4 -190 -2 -223 -44 -242 -38 -17 -89 -13 -115 8 -23 19 -24 24
-27 206 -3 201 1 224 51 245 31 13 88 2 112 -21z"/>
<path d="M3232 2708 c-9 -9 -12 -98 -12 -340 0 -313 1 -328 19 -338 29 -15 77
-12 95 6 13 12 16 39 16 130 l0 114 78 0 c102 0 149 14 193 59 75 74 80 230
12 312 -48 57 -90 69 -248 69 -97 0 -145 -4 -153 -12z m263 -113 c38 -15 55
-46 55 -100 0 -82 -40 -115 -140 -115 l-60 0 0 115 0 115 55 0 c31 0 71 -7 90
-15z"/>
</g>
</svg>
